<svg xmlns="http://www.w3.org/2000/svg" viewBox="0 0 200 200" width="200" height="200">
  <defs>
    <linearGradient id="grad2" x1="0%" y1="0%" x2="100%" y2="100%">
      <stop offset="0%" stop-color="#14b8a6"/>
      <stop offset="100%" stop-color="#0d9488"/>
    </linearGradient>
    <filter id="glow2">
      <feGaussianBlur stdDeviation="3" result="blur"/>
      <feMerge><feMergeNode in="blur"/><feMergeNode in="SourceGraphic"/></feMerge>
    </filter>
  </defs>
  <!-- Folder base -->
  <path d="M40 65 L40 145 Q40 150 45 150 L155 150 Q160 150 160 145 L160 70 Q160 65 155 65 L110 65 L95 52 L45 52 Q40 52 40 57 Z" fill="#1f2937" stroke="url(#grad2)" stroke-width="3" stroke-linejoin="round"/>
  <!-- Pestania folder -->
  <path d="M40 65 L40 57 Q40 52 45 52 L95 52 L110 65 Z" fill="#1f2937" stroke="url(#grad2)" stroke-width="3" stroke-linejoin="round"/>
  <!-- Play triangle inside folder -->
  <polygon points="83,90 83,125 118,107.5" fill="#14b8a6" filter="url(#glow2)" opacity="0.9"/>
  <!-- Aura rings behind -->
  <circle cx="100" cy="100" r="68" fill="none" stroke="#14b8a6" stroke-width="1" stroke-opacity="0.15"/>
  <circle cx="100" cy="100" r="78" fill="none" stroke="#14b8a6" stroke-width="0.8" stroke-opacity="0.10"/>
</svg>
